<mxfile host="app.diagrams.net" modified="2023-08-01T12:21:29.107Z" agent="Mozilla/5.0 (Windows NT 10.0; Win64; x64) AppleWebKit/537.36 (KHTML, like Gecko) Chrome/115.0.0.0 Safari/537.36" etag="0cb91t6--6dTUR4JP5Jv" version="21.6.6" type="github">
  <diagram name="Page-1" id="z8gf5CHwGtk5DTaKr-QW">
    <mxGraphModel dx="2284" dy="693" grid="1" gridSize="10" guides="1" tooltips="1" connect="1" arrows="1" fold="1" page="1" pageScale="1" pageWidth="850" pageHeight="1100" math="0" shadow="0">
      <root>
        <mxCell id="0" />
        <mxCell id="1" parent="0" />
        <mxCell id="R0KauC-7zpAW7D8DXHXL-6" value="" style="sketch=0;points=[[0,0,0],[0.25,0,0],[0.5,0,0],[0.75,0,0],[1,0,0],[0,1,0],[0.25,1,0],[0.5,1,0],[0.75,1,0],[1,1,0],[0,0.25,0],[0,0.5,0],[0,0.75,0],[1,0.25,0],[1,0.5,0],[1,0.75,0]];outlineConnect=0;fontColor=#232F3E;gradientColor=#945DF2;gradientDirection=north;fillColor=#5A30B5;strokeColor=#ffffff;dashed=0;verticalLabelPosition=bottom;verticalAlign=top;align=center;html=1;fontSize=12;fontStyle=0;aspect=fixed;shape=mxgraph.aws4.resourceIcon;resIcon=mxgraph.aws4.managed_streaming_for_kafka;" parent="1" vertex="1">
          <mxGeometry x="100" y="120" width="78" height="78" as="geometry" />
        </mxCell>
        <mxCell id="R0KauC-7zpAW7D8DXHXL-37" style="edgeStyle=orthogonalEdgeStyle;rounded=0;orthogonalLoop=1;jettySize=auto;html=1;" parent="1" source="R0KauC-7zpAW7D8DXHXL-7" edge="1">
          <mxGeometry relative="1" as="geometry">
            <mxPoint x="314" y="490" as="targetPoint" />
          </mxGeometry>
        </mxCell>
        <mxCell id="R0KauC-7zpAW7D8DXHXL-7" value="" style="image;aspect=fixed;html=1;points=[];align=center;fontSize=12;image=img/lib/azure2/compute/Function_Apps.svg;" parent="1" vertex="1">
          <mxGeometry x="280" y="280" width="68" height="60" as="geometry" />
        </mxCell>
        <mxCell id="R0KauC-7zpAW7D8DXHXL-8" value="" style="edgeStyle=segmentEdgeStyle;endArrow=classic;html=1;curved=0;rounded=0;endSize=8;startSize=8;entryX=-0.044;entryY=0.367;entryDx=0;entryDy=0;entryPerimeter=0;" parent="1" source="R0KauC-7zpAW7D8DXHXL-6" target="R0KauC-7zpAW7D8DXHXL-7" edge="1">
          <mxGeometry width="50" height="50" relative="1" as="geometry">
            <mxPoint x="400" y="410" as="sourcePoint" />
            <mxPoint x="450" y="360" as="targetPoint" />
            <Array as="points">
              <mxPoint x="200" y="159" />
              <mxPoint x="200" y="240" />
              <mxPoint x="277" y="240" />
            </Array>
          </mxGeometry>
        </mxCell>
        <mxCell id="R0KauC-7zpAW7D8DXHXL-9" value="" style="image;sketch=0;aspect=fixed;html=1;points=[];align=center;fontSize=12;image=img/lib/mscae/Service_Bus.svg;" parent="1" vertex="1">
          <mxGeometry x="420" y="120" width="50" height="50" as="geometry" />
        </mxCell>
        <mxCell id="R0KauC-7zpAW7D8DXHXL-10" value="" style="endArrow=classic;html=1;rounded=0;entryX=-0.02;entryY=0.22;entryDx=0;entryDy=0;entryPerimeter=0;exitX=0.735;exitY=0;exitDx=0;exitDy=0;exitPerimeter=0;" parent="1" source="R0KauC-7zpAW7D8DXHXL-7" target="R0KauC-7zpAW7D8DXHXL-9" edge="1">
          <mxGeometry width="50" height="50" relative="1" as="geometry">
            <mxPoint x="400" y="410" as="sourcePoint" />
            <mxPoint x="450" y="360" as="targetPoint" />
            <Array as="points">
              <mxPoint x="330" y="130" />
            </Array>
          </mxGeometry>
        </mxCell>
        <mxCell id="R0KauC-7zpAW7D8DXHXL-11" value="price curve" style="image;sketch=0;aspect=fixed;html=1;points=[];align=center;fontSize=12;image=img/lib/mscae/CosmosDB.svg;" parent="1" vertex="1">
          <mxGeometry x="280" y="500" width="50" height="50" as="geometry" />
        </mxCell>
        <mxCell id="R0KauC-7zpAW7D8DXHXL-12" value="mapping config" style="image;sketch=0;aspect=fixed;html=1;points=[];align=center;fontSize=12;image=img/lib/mscae/CosmosDB.svg;" parent="1" vertex="1">
          <mxGeometry x="520" y="650" width="50" height="50" as="geometry" />
        </mxCell>
        <mxCell id="R0KauC-7zpAW7D8DXHXL-13" value="security" style="image;sketch=0;aspect=fixed;html=1;points=[];align=center;fontSize=12;image=img/lib/mscae/CosmosDB.svg;" parent="1" vertex="1">
          <mxGeometry x="680" y="650" width="50" height="50" as="geometry" />
        </mxCell>
        <mxCell id="R0KauC-7zpAW7D8DXHXL-52" style="edgeStyle=orthogonalEdgeStyle;rounded=0;orthogonalLoop=1;jettySize=auto;html=1;" parent="1" source="R0KauC-7zpAW7D8DXHXL-16" target="R0KauC-7zpAW7D8DXHXL-38" edge="1">
          <mxGeometry relative="1" as="geometry" />
        </mxCell>
        <mxCell id="R0KauC-7zpAW7D8DXHXL-16" value="" style="image;aspect=fixed;html=1;points=[];align=center;fontSize=12;image=img/lib/azure2/integration/Logic_Apps.svg;" parent="1" vertex="1">
          <mxGeometry x="630" y="118" width="67" height="52" as="geometry" />
        </mxCell>
        <mxCell id="R0KauC-7zpAW7D8DXHXL-35" style="edgeStyle=orthogonalEdgeStyle;rounded=0;orthogonalLoop=1;jettySize=auto;html=1;exitX=1;exitY=0.5;exitDx=0;exitDy=0;entryX=0;entryY=0.5;entryDx=0;entryDy=0;" parent="1" source="R0KauC-7zpAW7D8DXHXL-19" target="R0KauC-7zpAW7D8DXHXL-20" edge="1">
          <mxGeometry relative="1" as="geometry" />
        </mxCell>
        <mxCell id="R0KauC-7zpAW7D8DXHXL-19" value="Zema - Data source" style="rounded=0;whiteSpace=wrap;html=1;" parent="1" vertex="1">
          <mxGeometry x="-320" y="110" width="120" height="60" as="geometry" />
        </mxCell>
        <mxCell id="R0KauC-7zpAW7D8DXHXL-36" style="edgeStyle=orthogonalEdgeStyle;rounded=0;orthogonalLoop=1;jettySize=auto;html=1;exitX=1;exitY=0.5;exitDx=0;exitDy=0;" parent="1" source="R0KauC-7zpAW7D8DXHXL-20" target="R0KauC-7zpAW7D8DXHXL-6" edge="1">
          <mxGeometry relative="1" as="geometry">
            <mxPoint x="90" y="150" as="targetPoint" />
          </mxGeometry>
        </mxCell>
        <mxCell id="R0KauC-7zpAW7D8DXHXL-20" value="publisher-zema adapter" style="rounded=0;whiteSpace=wrap;html=1;" parent="1" vertex="1">
          <mxGeometry x="-140" y="110" width="120" height="60" as="geometry" />
        </mxCell>
        <mxCell id="R0KauC-7zpAW7D8DXHXL-24" value="" style="endArrow=classic;startArrow=classic;html=1;rounded=0;entryX=0.1;entryY=0.72;entryDx=0;entryDy=0;entryPerimeter=0;" parent="1" edge="1" target="R0KauC-7zpAW7D8DXHXL-25">
          <mxGeometry width="50" height="50" relative="1" as="geometry">
            <mxPoint x="697" y="146.48" as="sourcePoint" />
            <mxPoint x="890" y="146" as="targetPoint" />
          </mxGeometry>
        </mxCell>
        <mxCell id="R0KauC-7zpAW7D8DXHXL-32" style="edgeStyle=orthogonalEdgeStyle;rounded=0;orthogonalLoop=1;jettySize=auto;html=1;exitX=0.5;exitY=1;exitDx=0;exitDy=0;exitPerimeter=0;" parent="1" source="R0KauC-7zpAW7D8DXHXL-25" target="R0KauC-7zpAW7D8DXHXL-29" edge="1">
          <mxGeometry relative="1" as="geometry" />
        </mxCell>
        <mxCell id="R0KauC-7zpAW7D8DXHXL-33" style="edgeStyle=orthogonalEdgeStyle;rounded=0;orthogonalLoop=1;jettySize=auto;html=1;exitX=0.855;exitY=0.855;exitDx=0;exitDy=0;exitPerimeter=0;" parent="1" source="R0KauC-7zpAW7D8DXHXL-25" target="R0KauC-7zpAW7D8DXHXL-30" edge="1">
          <mxGeometry relative="1" as="geometry" />
        </mxCell>
        <mxCell id="R0KauC-7zpAW7D8DXHXL-25" value="" style="verticalLabelPosition=bottom;html=1;verticalAlign=top;align=center;strokeColor=none;fillColor=#00BEF2;shape=mxgraph.azure.azure_website;pointerEvents=1;" parent="1" vertex="1">
          <mxGeometry x="1090" y="110" width="50" height="50" as="geometry" />
        </mxCell>
        <mxCell id="R0KauC-7zpAW7D8DXHXL-26" value="" style="endArrow=classic;startArrow=classic;html=1;rounded=0;" parent="1" edge="1">
          <mxGeometry width="50" height="50" relative="1" as="geometry">
            <mxPoint x="479" y="136" as="sourcePoint" />
            <mxPoint x="637.15" y="136.25" as="targetPoint" />
          </mxGeometry>
        </mxCell>
        <mxCell id="R0KauC-7zpAW7D8DXHXL-27" value="Aligne Tool - ETRM tool" style="rounded=0;whiteSpace=wrap;html=1;" parent="1" vertex="1">
          <mxGeometry x="1020" y="480" width="120" height="60" as="geometry" />
        </mxCell>
        <mxCell id="R0KauC-7zpAW7D8DXHXL-29" value="" style="sketch=0;outlineConnect=0;fontColor=#232F3E;gradientColor=none;fillColor=#2E27AD;strokeColor=none;dashed=0;verticalLabelPosition=bottom;verticalAlign=top;align=center;html=1;fontSize=12;fontStyle=0;aspect=fixed;pointerEvents=1;shape=mxgraph.aws4.rds_oracle_instance;" parent="1" vertex="1">
          <mxGeometry x="990" y="305" width="78" height="78" as="geometry" />
        </mxCell>
        <mxCell id="R0KauC-7zpAW7D8DXHXL-34" style="edgeStyle=orthogonalEdgeStyle;rounded=0;orthogonalLoop=1;jettySize=auto;html=1;entryX=0.592;entryY=-0.05;entryDx=0;entryDy=0;entryPerimeter=0;" parent="1" source="R0KauC-7zpAW7D8DXHXL-30" target="R0KauC-7zpAW7D8DXHXL-27" edge="1">
          <mxGeometry relative="1" as="geometry" />
        </mxCell>
        <mxCell id="R0KauC-7zpAW7D8DXHXL-30" value="" style="sketch=0;outlineConnect=0;fontColor=#232F3E;gradientColor=none;fillColor=#3F8624;strokeColor=none;dashed=0;verticalLabelPosition=bottom;verticalAlign=top;align=center;html=1;fontSize=12;fontStyle=0;aspect=fixed;pointerEvents=1;shape=mxgraph.aws4.file_system;" parent="1" vertex="1">
          <mxGeometry x="1180" y="310" width="78" height="73" as="geometry" />
        </mxCell>
        <mxCell id="R0KauC-7zpAW7D8DXHXL-50" style="edgeStyle=orthogonalEdgeStyle;rounded=0;orthogonalLoop=1;jettySize=auto;html=1;entryX=0.7;entryY=-0.02;entryDx=0;entryDy=0;entryPerimeter=0;" parent="1" source="R0KauC-7zpAW7D8DXHXL-38" target="R0KauC-7zpAW7D8DXHXL-40" edge="1">
          <mxGeometry relative="1" as="geometry" />
        </mxCell>
        <mxCell id="R0KauC-7zpAW7D8DXHXL-51" style="edgeStyle=orthogonalEdgeStyle;rounded=0;orthogonalLoop=1;jettySize=auto;html=1;entryX=0.5;entryY=0;entryDx=0;entryDy=0;entryPerimeter=0;" parent="1" source="R0KauC-7zpAW7D8DXHXL-38" target="R0KauC-7zpAW7D8DXHXL-39" edge="1">
          <mxGeometry relative="1" as="geometry" />
        </mxCell>
        <mxCell id="R0KauC-7zpAW7D8DXHXL-55" style="edgeStyle=orthogonalEdgeStyle;rounded=0;orthogonalLoop=1;jettySize=auto;html=1;entryX=0.5;entryY=0;entryDx=0;entryDy=0;entryPerimeter=0;" parent="1" source="R0KauC-7zpAW7D8DXHXL-38" target="R0KauC-7zpAW7D8DXHXL-53" edge="1">
          <mxGeometry relative="1" as="geometry" />
        </mxCell>
        <mxCell id="R0KauC-7zpAW7D8DXHXL-58" style="edgeStyle=orthogonalEdgeStyle;rounded=0;orthogonalLoop=1;jettySize=auto;html=1;entryX=0.5;entryY=0;entryDx=0;entryDy=0;entryPerimeter=0;" parent="1" source="R0KauC-7zpAW7D8DXHXL-38" target="R0KauC-7zpAW7D8DXHXL-56" edge="1">
          <mxGeometry relative="1" as="geometry" />
        </mxCell>
        <mxCell id="R0KauC-7zpAW7D8DXHXL-38" value="APIM&lt;br&gt;" style="image;sketch=0;aspect=fixed;html=1;points=[];align=center;fontSize=12;image=img/lib/mscae/API_Management.svg;" parent="1" vertex="1">
          <mxGeometry x="520" y="270" width="117.15" height="98.4" as="geometry" />
        </mxCell>
        <mxCell id="R0KauC-7zpAW7D8DXHXL-42" style="edgeStyle=orthogonalEdgeStyle;rounded=0;orthogonalLoop=1;jettySize=auto;html=1;" parent="1" source="R0KauC-7zpAW7D8DXHXL-39" target="R0KauC-7zpAW7D8DXHXL-13" edge="1">
          <mxGeometry relative="1" as="geometry" />
        </mxCell>
        <mxCell id="R0KauC-7zpAW7D8DXHXL-39" value="security api" style="verticalLabelPosition=bottom;html=1;verticalAlign=top;align=center;strokeColor=none;fillColor=#00BEF2;shape=mxgraph.azure.azure_website;pointerEvents=1;" parent="1" vertex="1">
          <mxGeometry x="620" y="440" width="50" height="50" as="geometry" />
        </mxCell>
        <mxCell id="R0KauC-7zpAW7D8DXHXL-41" style="edgeStyle=orthogonalEdgeStyle;rounded=0;orthogonalLoop=1;jettySize=auto;html=1;entryX=0.18;entryY=-0.04;entryDx=0;entryDy=0;entryPerimeter=0;" parent="1" source="R0KauC-7zpAW7D8DXHXL-40" target="R0KauC-7zpAW7D8DXHXL-12" edge="1">
          <mxGeometry relative="1" as="geometry" />
        </mxCell>
        <mxCell id="R0KauC-7zpAW7D8DXHXL-40" value="mapping api" style="verticalLabelPosition=bottom;html=1;verticalAlign=top;align=center;strokeColor=none;fillColor=#00BEF2;shape=mxgraph.azure.azure_website;pointerEvents=1;" parent="1" vertex="1">
          <mxGeometry x="510" y="440" width="50" height="50" as="geometry" />
        </mxCell>
        <mxCell id="R0KauC-7zpAW7D8DXHXL-53" value="react applicaiton" style="verticalLabelPosition=bottom;html=1;verticalAlign=top;align=center;strokeColor=none;fillColor=#00BEF2;shape=mxgraph.azure.azure_website;pointerEvents=1;" parent="1" vertex="1">
          <mxGeometry x="820" y="450" width="50" height="50" as="geometry" />
        </mxCell>
        <mxCell id="R0KauC-7zpAW7D8DXHXL-56" value="price curve api" style="verticalLabelPosition=bottom;html=1;verticalAlign=top;align=center;strokeColor=none;fillColor=#00BEF2;shape=mxgraph.azure.azure_website;pointerEvents=1;" parent="1" vertex="1">
          <mxGeometry x="410" y="440" width="50" height="50" as="geometry" />
        </mxCell>
        <mxCell id="R0KauC-7zpAW7D8DXHXL-60" style="edgeStyle=orthogonalEdgeStyle;rounded=0;orthogonalLoop=1;jettySize=auto;html=1;" parent="1" source="R0KauC-7zpAW7D8DXHXL-59" target="R0KauC-7zpAW7D8DXHXL-38" edge="1">
          <mxGeometry relative="1" as="geometry" />
        </mxCell>
        <mxCell id="R0KauC-7zpAW7D8DXHXL-61" style="edgeStyle=orthogonalEdgeStyle;rounded=0;orthogonalLoop=1;jettySize=auto;html=1;entryX=0.855;entryY=0.145;entryDx=0;entryDy=0;entryPerimeter=0;" parent="1" source="R0KauC-7zpAW7D8DXHXL-59" target="R0KauC-7zpAW7D8DXHXL-53" edge="1">
          <mxGeometry relative="1" as="geometry" />
        </mxCell>
        <mxCell id="R0KauC-7zpAW7D8DXHXL-59" value="" style="outlineConnect=0;dashed=0;verticalLabelPosition=bottom;verticalAlign=top;align=center;html=1;shape=mxgraph.aws3.add_on;fillColor=#759C3E;gradientColor=none;" parent="1" vertex="1">
          <mxGeometry x="750" y="220" width="49.5" height="27" as="geometry" />
        </mxCell>
        <mxCell id="R0KauC-7zpAW7D8DXHXL-63" style="edgeStyle=orthogonalEdgeStyle;rounded=0;orthogonalLoop=1;jettySize=auto;html=1;entryX=0.5;entryY=1;entryDx=0;entryDy=0;entryPerimeter=0;" parent="1" source="R0KauC-7zpAW7D8DXHXL-62" target="R0KauC-7zpAW7D8DXHXL-53" edge="1">
          <mxGeometry relative="1" as="geometry" />
        </mxCell>
        <mxCell id="R0KauC-7zpAW7D8DXHXL-62" value="Actor" style="shape=umlActor;verticalLabelPosition=bottom;verticalAlign=top;html=1;outlineConnect=0;" parent="1" vertex="1">
          <mxGeometry x="830" y="590" width="30" height="60" as="geometry" />
        </mxCell>
      </root>
    </mxGraphModel>
  </diagram>
</mxfile>
